# xmcd CD database file
#
# Track frame offsets:
#	150
#	14720
#	39000
#	58064
#	75340
#	87895
#	105253
#	123221
#	141576
#	155015
#	174737
#	194356
#	217363
#
# Disc length: 3125 seconds
#
# Revision: 0
# Processed by: cddbd v1.4PL0 Copyright (c) Steve Scherf et al.
# Submitted via: CDex 1.40Release
#
DISCID=b10c330d
DTITLE=Joanna Connor - Mercury Pops
DYEAR=2003
DGENRE=Blues
TTITLE0=Sixth Child
TTITLE1=Within You, Without You
TTITLE2=Can't Find My Way Home
TTITLE3=Never Loved A Man
TTITLE4=Sweet Have Mercy
TTITLE5=Amazing Grace
TTITLE6=Sweet Baby
TTITLE7=Manic Depression
TTITLE8=A Minor Love
TTITLE9=You Should Be My Lover
TTITLE10=Giant Step
TTITLE11=Meditations
TTITLE12=Guitar Dove
EXTD=YEAR: 2003 ID3G: 0
EXTT0=
EXTT1=
EXTT2=
EXTT3=
EXTT4=
EXTT5=
EXTT6=
EXTT7=
EXTT8=
EXTT9=
EXTT10=
EXTT11=
EXTT12=
PLAYORDER=
